<?xml version="1.0" standalone="no"?>
<!DOCTYPE svg PUBLIC "-//W3C//DTD SVG 20010904//EN"
 "http://www.w3.org/TR/2001/REC-SVG-20010904/DTD/svg10.dtd">
<svg version="1.0" xmlns="http://www.w3.org/2000/svg"
 width="70.000000pt" height="70.000000pt" viewBox="0 0 70.000000 70.000000"
 preserveAspectRatio="xMidYMid meet">
<metadata>
Created by potrace 1.11, written by Peter Selinger 2001-2013
</metadata>
<g transform="translate(0.000000,70.000000) scale(0.100000,-0.100000)"
fill="#000000" stroke="none">
<path d="M230 565 c0 -13 21 -15 130 -15 109 0 130 2 130 15 0 13 -21 15 -130
15 -109 0 -130 -2 -130 -15z"/>
<path d="M72 454 c-27 -19 -29 -64 -4 -86 9 -9 33 -21 54 -27 42 -14 54 -34
32 -56 -21 -21 -51 -19 -71 5 -20 23 -43 26 -43 5 0 -42 103 -63 141 -29 41
37 17 82 -57 107 -40 14 -57 43 -32 58 23 15 57 10 68 -11 12 -23 40 -27 40
-6 0 22 -49 56 -79 56 -15 0 -37 -7 -49 -16z"/>
<path d="M250 361 c0 -107 1 -111 21 -111 21 0 22 3 16 78 l-7 77 33 -77 c20
-49 38 -78 47 -78 10 0 26 27 44 75 16 41 30 75 33 75 2 0 1 -34 -3 -75 -6
-72 -6 -75 15 -75 20 0 21 4 21 111 0 107 -1 110 -21 107 -17 -2 -29 -21 -52
-80 -16 -43 -33 -78 -36 -78 -3 0 -20 35 -36 78 -24 60 -35 78 -53 80 -22 3
-22 1 -22 -107z"/>
<path d="M530 360 l0 -110 71 0 c52 0 70 3 67 13 -3 7 -26 13 -56 15 -52 3
-52 3 -52 38 0 34 0 34 45 34 25 0 45 5 45 10 0 6 -20 10 -45 10 -45 0 -45 0
-45 35 l0 35 56 0 c40 0 55 3 52 13 -3 7 -29 13 -71 15 l-67 3 0 -111z"/>
</g>
</svg>
